PathFileType	4	(X/Y/Z)	OpenSim_Sub03_CSBaseline_Magnet.trc
DataRate	CameraRate	NumFrames	NumMarkers	Units	OrigDataRate	OrigDataStartFrame	OrigNumFrames
100	100	30	8	m	100	8128	9288
Frame#	Time	torso_imu_offset_imu	pelvis_imu_offset_imu	tibia_r_imu_offset_imu	femur_r_imu_offset_imu	tibia_l_imu_offset_imu	femur_l_imu_offset_imu	toes_r_imu_offset_imu	toes_l_imu_offset_imu
				X1	Y1	Z1	X2	Y2	Z2	X3	Y3	Z3	X4	Y4	Z4	X5	Y5	Z5	X6	Y6	Z6	X7	Y7	Z7	X8		Y8	Z8	

8128	81.27000000	-0.91054186	-0.14135145	0.13928788	-0.70997564	0.18610328	-0.58828369	-0.62851837	-0.48977759	0.06059186	-0.55440729	-0.68174614	0.09389937	-0.19117605	0.79823147	0.03505926	-0.77305703	0.27067184	0.18646315	-0.68792221	-0.17719896	-0.35552574	-0.67093743	0.11833692	0.39251919
8129	81.28000000	-0.91213964	-0.14445126	0.14429526	-0.71053377	0.18063982	-0.59350345	-0.63033979	-0.49334538	0.06064316	-0.55333902	-0.68992293	0.08728541	-0.19553110	0.79276851	0.04130233	-0.77733191	0.25633400	0.19154224	-0.68884242	-0.17717071	-0.35059350	-0.68115253	0.10853872	0.38271999
8130	81.29000000	-0.91237738	-0.14133225	0.14506431	-0.71388717	0.17821748	-0.59447935	-0.62631108	-0.50103030	0.04979822	-0.54659892	-0.69144647	0.08395677	-0.20398935	0.79039402	0.04937081	-0.77624132	0.24046836	0.19854928	-0.69285188	-0.17936779	-0.34497012	-0.69507707	0.09133203	0.36824612
8131	81.30000000	-0.91367543	-0.13823605	0.14582717	-0.71227577	0.17713304	-0.59161957	-0.62352673	-0.50576373	0.05784943	-0.54513223	-0.70195470	0.07932701	-0.21383814	0.78600794	0.07310389	-0.78246232	0.22357985	0.20087728	-0.68899179	-0.18263190	-0.34621939	-0.70257005	0.07546113	0.35216867
8132	81.31000000	-0.91982192	-0.14027133	0.14692993	-0.71584594	0.17329512	-0.58653745	-0.62161178	-0.51414032	0.05778626	-0.54031649	-0.70421007	0.07727874	-0.22604135	0.77968440	0.08723339	-0.78292539	0.21265784	0.19930921	-0.69147465	-0.18785151	-0.34224291	-0.71611329	0.06544290	0.33267036
8133	81.32000000	-0.91484786	-0.13546283	0.14528259	-0.71057911	0.17467828	-0.59801128	-0.61642349	-0.51533442	0.04480842	-0.54214382	-0.70722301	0.06449595	-0.24388299	0.77307376	0.09317595	-0.78253378	0.20234204	0.20264389	-0.68997212	-0.19018499	-0.34287076	-0.72757610	0.05791433	0.30987896
8134	81.33000000	-0.91637946	-0.14036011	0.14811486	-0.71614524	0.17216870	-0.59281897	-0.61641099	-0.51586813	0.04079359	-0.54012222	-0.71411968	0.05876585	-0.25741253	0.77294921	0.10528309	-0.78715355	0.18726079	0.20786496	-0.68960809	-0.19331004	-0.34291203	-0.73552582	0.04903190	0.28722467
8135	81.34000000	-0.91747818	-0.13798521	0.15037859	-0.71646968	0.16770797	-0.59448488	-0.61006212	-0.52449992	0.04893273	-0.54251838	-0.71435829	0.05928604	-0.27882451	0.76291018	0.10432938	-0.79229562	0.17244648	0.21580093	-0.69345649	-0.19395347	-0.34200046	-0.75328232	0.03814273	0.26109315
8136	81.35000000	-0.91510991	-0.13539436	0.15083375	-0.71338656	0.17017528	-0.59387192	-0.60200111	-0.52688510	0.04721830	-0.53666380	-0.71496249	0.04981669	-0.29438863	0.75161950	0.10726415	-0.79113824	0.15423902	0.21972511	-0.69230917	-0.19846166	-0.33631438	-0.76424080	0.03749743	0.23120366
8137	81.36000000	-0.91267022	-0.13751735	0.15555481	-0.71437437	0.17036277	-0.59717617	-0.60439770	-0.53056550	0.03802691	-0.52905296	-0.72504553	0.03867914	-0.31906040	0.74282567	0.10233153	-0.79629284	0.14593484	0.21870665	-0.68982466	-0.20325895	-0.33585382	-0.77856552	0.03488783	0.19793482
8138	81.37000000	-0.91181724	-0.13710836	0.16433238	-0.71902862	0.16716523	-0.59570810	-0.60399921	-0.53987236	0.03676146	-0.53059815	-0.72710430	0.04112122	-0.34435179	0.72903474	0.10588375	-0.79319058	0.13772177	0.21869702	-0.68854091	-0.20373471	-0.33551302	-0.77663283	0.03338084	0.16351012
8139	81.38000000	-0.91372523	-0.13729121	0.15747421	-0.71613262	0.16162240	-0.59604231	-0.59213101	-0.54734513	0.03883016	-0.52551571	-0.73861663	0.03626566	-0.36657093	0.72214253	0.09725541	-0.79300199	0.12444159	0.21309302	-0.68756134	-0.20451166	-0.32459176	-0.78574826	0.02958478	0.12964931
8140	81.39000000	-0.91403158	-0.13691606	0.16207666	-0.71659615	0.16193188	-0.59270400	-0.59313361	-0.54914340	0.03996429	-0.52440431	-0.73832513	0.03465331	-0.39182340	0.70687191	0.08961863	-0.79815969	0.11456960	0.21287724	-0.68702054	-0.21807629	-0.32538298	-0.79897218	0.02457186	0.08527986
8141	81.40000000	-0.91624131	-0.13409467	0.16999223	-0.71680077	0.15802232	-0.59449850	-0.58544826	-0.55235965	0.03864751	-0.52066467	-0.74011370	0.03210283	-0.41794764	0.68869971	0.09545489	-0.80648551	0.11010889	0.21312212	-0.69013486	-0.21631912	-0.32341304	-0.79739696	0.02564684	0.04424916
8142	81.41000000	-0.91475696	-0.13442167	0.17136332	-0.71545943	0.16012787	-0.59225253	-0.58532534	-0.56530169	0.03334810	-0.51495830	-0.74691883	0.03080069	-0.44487296	0.67224788	0.08410546	-0.80234040	0.10106406	0.21444391	-0.68799755	-0.21386230	-0.32252272	-0.79389106	0.02073949	0.00626723
8143	81.42000000	-0.90999984	-0.14074449	0.16589419	-0.71619993	0.15493173	-0.59190298	-0.57963389	-0.56760584	0.03678820	-0.51313301	-0.75238377	0.03048358	-0.46954572	0.65430693	0.07591823	-0.80010858	0.08772894	0.21015776	-0.68793055	-0.22039205	-0.31863068	-0.79802389	0.01461184	-0.02599329
8144	81.43000000	-0.91048920	-0.13661662	0.17216035	-0.71987913	0.15708821	-0.59411382	-0.57816933	-0.56782721	0.03222240	-0.51061141	-0.75620787	0.02908477	-0.49291697	0.63092044	0.08395638	-0.80301056	0.09175727	0.21371255	-0.68926800	-0.22689199	-0.32044674	-0.79982403	0.01287135	-0.05687764
8145	81.44000000	-0.91363160	-0.13125047	0.17208198	-0.71232276	0.15467913	-0.59981672	-0.57680304	-0.57648786	0.03266697	-0.50449440	-0.76106952	0.02805314	-0.52504775	0.60945786	0.08687138	-0.80635201	0.08599284	0.20825979	-0.69167399	-0.22901079	-0.31955950	-0.79055001	0.00507406	-0.09963125
8146	81.45000000	-0.91165270	-0.13576627	0.17635113	-0.71373639	0.15563290	-0.59900053	-0.56631847	-0.57899284	0.03058818	-0.49725795	-0.76678073	0.02417783	-0.55384005	0.57942783	0.09289573	-0.80335119	0.08019844	0.21243072	-0.68608711	-0.23279980	-0.31500636	-0.78341745	-0.00082452	-0.13903219
8147	81.46000000	-0.91011852	-0.13575370	0.17561525	-0.71495507	0.15371521	-0.59890714	-0.56429846	-0.58261108	0.02685937	-0.49590657	-0.77089337	0.02130383	-0.57514456	0.55183086	0.09074702	-0.80654898	0.08215615	0.21877384	-0.68747162	-0.23475549	-0.31677073	-0.78048887	-0.01829224	-0.17828621
8148	81.47000000	-0.90842015	-0.13682275	0.17650225	-0.70893145	0.15104188	-0.60022216	-0.55924019	-0.58758889	0.02163982	-0.49313642	-0.77424460	0.01829270	-0.59651472	0.52536013	0.10368870	-0.80181957	0.08002452	0.21584644	-0.69138229	-0.23640252	-0.31052619	-0.77018673	-0.03452270	-0.21265321
8149	81.48000000	-0.91018975	-0.13544761	0.18346946	-0.71039190	0.15346358	-0.60481224	-0.55419719	-0.58648334	0.02266073	-0.48824517	-0.77710036	0.01672053	-0.62606839	0.49454752	0.11935134	-0.80271049	0.08040699	0.21644795	-0.68746108	-0.24028221	-0.30617543	-0.75811635	-0.04649910	-0.25116005
8150	81.49000000	-0.90520310	-0.13777257	0.18818798	-0.70855486	0.15280622	-0.60672216	-0.55774046	-0.59294676	0.02234686	-0.48600173	-0.78403642	0.01068316	-0.65260790	0.45882352	0.12204302	-0.80280138	0.08516117	0.21621574	-0.69084645	-0.24431713	-0.30614026	-0.74922257	-0.06561394	-0.27725325
8151	81.50000000	-0.91027573	-0.14074245	0.18204497	-0.70499083	0.15382685	-0.60938264	-0.55059810	-0.60193562	0.01840730	-0.48685151	-0.78519315	0.00834570	-0.67079329	0.42376995	0.11901183	-0.80292272	0.09139352	0.21654310	-0.69073188	-0.24694247	-0.30347236	-0.73582672	-0.08528229	-0.31203948
8152	81.51000000	-0.91200564	-0.13940764	0.18635613	-0.70636097	0.15499121	-0.61048966	-0.54741633	-0.60044434	0.01385906	-0.48236692	-0.78619318	0.00395381	-0.68752629	0.38876531	0.12170593	-0.80330429	0.09295550	0.21545925	-0.69040305	-0.25597320	-0.29777634	-0.72548012	-0.09101799	-0.33928582
8153	81.52000000	-0.90954188	-0.13727682	0.18945765	-0.70755952	0.15726411	-0.60821886	-0.54706579	-0.60763901	0.01701936	-0.48026812	-0.79615839	0.00311167	-0.70620549	0.35233237	0.13067240	-0.80213835	0.10188675	0.21925872	-0.69241655	-0.25772621	-0.28953987	-0.70929003	-0.10658934	-0.36880542
8154	81.53000000	-0.90512943	-0.14257994	0.18920551	-0.70503913	0.16091065	-0.60981552	-0.53842537	-0.61002468	0.01042276	-0.47849102	-0.79538211	0.00316378	-0.71630526	0.31685512	0.12697331	-0.79861312	0.10501626	0.22762003	-0.69004469	-0.26078549	-0.28816104	-0.69416757	-0.12312269	-0.39093498
8155	81.54000000	-0.91086401	-0.13757246	0.18981395	-0.70310956	0.15797257	-0.60977126	-0.53495501	-0.61495125	0.00388200	-0.47908138	-0.79540168	-0.00212737	-0.73134285	0.29040223	0.12312091	-0.79921225	0.11104778	0.22081320	-0.69704886	-0.26233178	-0.28787184	-0.67655276	-0.13449810	-0.41520801
8156	81.55000000	-0.91038786	-0.14179007	0.19152522	-0.70025296	0.16222991	-0.60616973	-0.53004127	-0.62404892	0.00643812	-0.47762479	-0.80243692	-0.00801561	-0.73884072	0.26176085	0.13040844	-0.79466592	0.11847545	0.22311340	-0.69550841	-0.26782449	-0.27922044	-0.66299865	-0.14231703	-0.43375780
8157	81.56000000	-0.90633591	-0.13872081	0.19182693	-0.70116702	0.16146306	-0.60560208	-0.52602531	-0.62485086	-0.00300358	-0.47362031	-0.80410764	-0.01093558	-0.74787093	0.23010877	0.12289205	-0.79226013	0.12475120	0.22931305	-0.69097337	-0.27108299	-0.27618177	-0.65045479	-0.15313104	-0.44850129
